<svg xmlns="http://www.w3.org/2000/svg" fill="none" viewBox="0 37 382 370">
<rect y="37" width="382" height="370" fill="#16404D"/>
<path d="M73.2 219.6C71 225.6 69.9 231.5 69.9 237.3C69.9 242.9 70.9 247.2 72.9 250.2C75.1 253.2 78.5 255.3 83.1 256.5C90.1 258.3 99.4 259.2 111 259.2H116.1V264H27.3V259.2C37.9 259.2 45.9 256.3 51.3 250.5C56.9 244.5 61.8 235.2 66 222.6L114.9 81.3C116.3 76.9 117.6 73.6 118.8 71.4C121.6 65.8 126.2 63 132.6 63H133.5L194.1 259.2H215.4V264H138.6V259.2H160.8L140.1 191.4H82.8L73.2 219.6ZM112.2 106.2L84.6 186.6H138.6L114 106.2H112.2Z" fill="#FFF6DA"/>
<path d="M354.6 186.3V191.1C345.2 191.5 337.3 193.5 330.9 197.1C324.5 200.5 319 206.7 314.4 215.7L278.1 287.7V376.2H303V381H225V376.2H246.9V290.7L193.2 190.8H171.3V186H251.7V190.8H226.8L274.8 281.7L300 232.8C305.2 222.4 307.8 214 307.8 207.6C307.8 201.2 305.3 196.9 300.3 194.7C295.5 192.3 288.4 191.1 279 191.1H276.6V186.3H354.6Z" fill="#FFF6DA"/>
</svg>